<svg xmlns="http://www.w3.org/2000/svg" width="350" height="350"><g transform="translate(-465.0 -345.0)"><g transform="translate(640 640) rotate(0 0 0)"><rect stroke="#6da5f2" stroke-width="2.7" transform-origin="center" x="-9.183566570281982" y="-24.4619083404541" width="18.367133140563965" height="48.9238166809082" rx="3.673426628112793" fill-opacity="1" fill="#d0e5f5"/>1.35<line stroke="#6da5f2" stroke-width="2.7" x1="0" y1="1.35" x2="0" y2="-1.35"/></g><g transform="translate(695.0052776271447 420.0508384059117) rotate(179.16771587729454 0 0)"><rect stroke="#e09634" stroke-width="2.7" transform-origin="center" x="-1.720348298549652" y="-1.720348298549652" width="3.440696597099304" height="3.440696597099304" rx="0.6881393194198608" fill-opacity="1" fill="#fad9af"/>1.35<line stroke="#e09634" stroke-width="2.7" x1="0" y1="1.35" x2="0" y2="-1.35"/></g><g transform="translate(686.2155601850556 420.1432227663861) rotate(90.15903472900389 0 0)"><rect stroke="#e09634" stroke-width="2.7" transform-origin="center" x="-1.720348298549652" y="-1.720348298549652" width="3.440696597099304" height="3.440696597099304" rx="0.6881393194198608" fill-opacity="1" fill="#fad9af"/>1.35<line stroke="#e09634" stroke-width="2.7" x1="0" y1="1.35" x2="0" y2="-1.35"/></g><g transform="translate(676.2186474166084 420.123974501397) rotate(90.18834686279295 0 0)"><rect stroke="#e09634" stroke-width="2.7" transform-origin="center" x="-1.720348298549652" y="-1.720348298549652" width="3.440696597099304" height="3.440696597099304" rx="0.6881393194198608" fill-opacity="1" fill="#fad9af"/>1.35<line stroke="#e09634" stroke-width="2.7" x1="0" y1="1.35" x2="0" y2="-1.35"/></g><g transform="translate(666.2315824646196 420.10945001521236) rotate(0.10441589355467147 0 0)"><rect stroke="#e09634" stroke-width="2.7" transform-origin="center" x="-1.720348298549652" y="-1.720348298549652" width="3.440696597099304" height="3.440696597099304" rx="0.6881393194198608" fill-opacity="1" fill="#fad9af"/>1.35<line stroke="#e09634" stroke-width="2.7" x1="0" y1="1.35" x2="0" y2="-1.35"/></g><g transform="translate(666.1977742987478 440.10895461162704) rotate(0.09860229492185658 0 0)"><rect stroke="#e09634" stroke-width="2.7" transform-origin="center" x="-1.720348298549652" y="-1.720348298549652" width="3.440696597099304" height="3.440696597099304" rx="0.6881393194198608" fill-opacity="1" fill="#fad9af"/>1.35<line stroke="#e09634" stroke-width="2.7" x1="0" y1="1.35" x2="0" y2="-1.35"/></g><g transform="translate(666.1639688498926 460.1090401153749) rotate(0.10012817382811823 0 0)"><rect stroke="#e09634" stroke-width="2.7" transform-origin="center" x="-1.720348298549652" y="-1.720348298549652" width="3.440696597099304" height="3.440696597099304" rx="0.6881393194198608" fill-opacity="1" fill="#fad9af"/>1.35<line stroke="#e09634" stroke-width="2.7" x1="0" y1="1.35" x2="0" y2="-1.35"/></g><g transform="translate(666.1252394928083 480.10676372972057) rotate(0.10279846191405703 0 0)"><rect stroke="#e09634" stroke-width="2.7" transform-origin="center" x="-1.720348298549652" y="-1.720348298549652" width="3.440696597099304" height="3.440696597099304" rx="0.6881393194198608" fill-opacity="1" fill="#fad9af"/>1.35<line stroke="#e09634" stroke-width="2.7" x1="0" y1="1.35" x2="0" y2="-1.35"/></g><g transform="translate(677.6465232375789 550.091893560126) rotate(-89.32709503173828 0 0)"><rect stroke="#e09634" stroke-width="2.7" transform-origin="center" x="-14.352929592132568" y="-11.86714768409729" width="28.705859184265137" height="23.73429536819458" rx="5.741171836853027" fill-opacity="1" fill="#fad9af"/>1.35<line stroke="#e09634" stroke-width="2.7" x1="0" y1="1.35" x2="0" y2="-1.35"/></g><circle stroke="#ab0303" stroke-width="1.0" opacity="1" cx="640.2008" cy="640.0506" r="3" fill="#eb0e0e"/><circle stroke="#ab0303" stroke-width="1.0" opacity="1" cx="640.15216" cy="630.01483" r="3" fill="#eb0e0e"/><circle stroke="#ab0303" stroke-width="1.0" opacity="1" cx="640.1807" cy="619.97327" r="3" fill="#eb0e0e"/><circle stroke="#ab0303" stroke-width="1.0" opacity="1" cx="640.23676" cy="609.9318" r="3" fill="#eb0e0e"/><circle stroke="#ab0303" stroke-width="1.0" opacity="1" cx="640.36896" cy="599.8824" r="3" fill="#eb0e0e"/><circle stroke="#ab0303" stroke-width="1.0" opacity="1" cx="640.4267" cy="589.8201" r="3" fill="#eb0e0e"/><circle stroke="#ab0303" stroke-width="1.0" opacity="1" cx="640.11487" cy="579.83795" r="3" fill="#eb0e0e"/><circle stroke="#ab0303" stroke-width="1.0" opacity="1" cx="639.6424" cy="569.86505" r="3" fill="#eb0e0e"/><circle stroke="#ab0303" stroke-width="1.0" opacity="1" cx="638.67505" cy="559.9802" r="3" fill="#eb0e0e"/><circle stroke="#ab0303" stroke-width="1.0" opacity="1" cx="637.4902" cy="550.159" r="3" fill="#eb0e0e"/><circle stroke="#ab0303" stroke-width="1.0" opacity="1" cx="635.1677" cy="540.55316" r="3" fill="#eb0e0e"/><circle stroke="#ab0303" stroke-width="1.0" opacity="1" cx="633.8495" cy="530.7934" r="3" fill="#eb0e0e"/><circle stroke="#ab0303" stroke-width="1.0" opacity="1" cx="632.36414" cy="520.9617" r="3" fill="#eb0e0e"/><circle stroke="#ab0303" stroke-width="1.0" opacity="1" cx="631.9987" cy="510.96646" r="3" fill="#eb0e0e"/><circle stroke="#ab0303" stroke-width="1.0" opacity="1" cx="631.94916" cy="500.94366" r="3" fill="#eb0e0e"/><circle stroke="#ab0303" stroke-width="1.0" opacity="1" cx="632.043" cy="490.9005" r="3" fill="#eb0e0e"/><circle stroke="#ab0303" stroke-width="1.0" opacity="1" cx="632.4882" cy="480.84167" r="3" fill="#eb0e0e"/><circle stroke="#ab0303" stroke-width="1.0" opacity="1" cx="632.7893" cy="470.79016" r="3" fill="#eb0e0e"/><circle stroke="#ab0303" stroke-width="1.0" opacity="1" cx="633.1826" cy="460.74432" r="3" fill="#eb0e0e"/><circle stroke="#ab0303" stroke-width="1.0" opacity="1" cx="633.48865" cy="450.63925" r="3" fill="#eb0e0e"/></g></svg>