<svg xmlns="http://www.w3.org/2000/svg" width="350" height="350"><g transform="translate(-465.0 -345.0)"><g transform="translate(640 640) rotate(0 0 0)"><rect stroke="#6da5f2" stroke-width="2.7" transform-origin="center" x="-9.183566570281982" y="-24.4619083404541" width="18.367133140563965" height="48.9238166809082" rx="3.673426628112793" fill-opacity="1" fill="#d0e5f5"/>1.35<line stroke="#6da5f2" stroke-width="2.7" x1="0" y1="1.35" x2="0" y2="-1.35"/></g><g transform="translate(705.0052776271447 420.0508384059117) rotate(179.16771587729454 0 0)"><rect stroke="#e09634" stroke-width="2.7" transform-origin="center" x="-1.720348298549652" y="-1.720348298549652" width="3.440696597099304" height="3.440696597099304" rx="0.6881393194198608" fill-opacity="1" fill="#fad9af"/>1.35<line stroke="#e09634" stroke-width="2.7" x1="0" y1="1.35" x2="0" y2="-1.35"/></g><g transform="translate(696.2155601850556 420.1432227663861) rotate(90.15903472900389 0 0)"><rect stroke="#e09634" stroke-width="2.7" transform-origin="center" x="-1.720348298549652" y="-1.720348298549652" width="3.440696597099304" height="3.440696597099304" rx="0.6881393194198608" fill-opacity="1" fill="#fad9af"/>1.35<line stroke="#e09634" stroke-width="2.7" x1="0" y1="1.35" x2="0" y2="-1.35"/></g><g transform="translate(686.2186474166084 420.123974501397) rotate(90.18834686279295 0 0)"><rect stroke="#e09634" stroke-width="2.7" transform-origin="center" x="-1.720348298549652" y="-1.720348298549652" width="3.440696597099304" height="3.440696597099304" rx="0.6881393194198608" fill-opacity="1" fill="#fad9af"/>1.35<line stroke="#e09634" stroke-width="2.7" x1="0" y1="1.35" x2="0" y2="-1.35"/></g><g transform="translate(676.2315824646196 420.10945001521236) rotate(0.10441589355467147 0 0)"><rect stroke="#e09634" stroke-width="2.7" transform-origin="center" x="-1.720348298549652" y="-1.720348298549652" width="3.440696597099304" height="3.440696597099304" rx="0.6881393194198608" fill-opacity="1" fill="#fad9af"/>1.35<line stroke="#e09634" stroke-width="2.7" x1="0" y1="1.35" x2="0" y2="-1.35"/></g><g transform="translate(676.1977742987478 440.10895461162704) rotate(0.09860229492185658 0 0)"><rect stroke="#e09634" stroke-width="2.7" transform-origin="center" x="-1.720348298549652" y="-1.720348298549652" width="3.440696597099304" height="3.440696597099304" rx="0.6881393194198608" fill-opacity="1" fill="#fad9af"/>1.35<line stroke="#e09634" stroke-width="2.7" x1="0" y1="1.35" x2="0" y2="-1.35"/></g><g transform="translate(676.1639688498926 460.1090401153749) rotate(0.10012817382811823 0 0)"><rect stroke="#e09634" stroke-width="2.7" transform-origin="center" x="-1.720348298549652" y="-1.720348298549652" width="3.440696597099304" height="3.440696597099304" rx="0.6881393194198608" fill-opacity="1" fill="#fad9af"/>1.35<line stroke="#e09634" stroke-width="2.7" x1="0" y1="1.35" x2="0" y2="-1.35"/></g><g transform="translate(676.1252394928083 480.10676372972057) rotate(0.10279846191405703 0 0)"><rect stroke="#e09634" stroke-width="2.7" transform-origin="center" x="-1.720348298549652" y="-1.720348298549652" width="3.440696597099304" height="3.440696597099304" rx="0.6881393194198608" fill-opacity="1" fill="#fad9af"/>1.35<line stroke="#e09634" stroke-width="2.7" x1="0" y1="1.35" x2="0" y2="-1.35"/></g><g transform="translate(687.6465232375789 550.091893560126) rotate(-89.32709503173828 0 0)"><rect stroke="#e09634" stroke-width="2.7" transform-origin="center" x="-14.352929592132568" y="-11.86714768409729" width="28.705859184265137" height="23.73429536819458" rx="5.741171836853027" fill-opacity="1" fill="#fad9af"/>1.35<line stroke="#e09634" stroke-width="2.7" x1="0" y1="1.35" x2="0" y2="-1.35"/></g><circle stroke="#ab0303" stroke-width="1.0" opacity="1" cx="640.4958" cy="640.0701" r="3" fill="#eb0e0e"/><circle stroke="#ab0303" stroke-width="1.0" opacity="1" cx="640.45886" cy="630.03265" r="3" fill="#eb0e0e"/><circle stroke="#ab0303" stroke-width="1.0" opacity="1" cx="640.4857" cy="619.9879" r="3" fill="#eb0e0e"/><circle stroke="#ab0303" stroke-width="1.0" opacity="1" cx="640.54926" cy="609.94635" r="3" fill="#eb0e0e"/><circle stroke="#ab0303" stroke-width="1.0" opacity="1" cx="640.72705" cy="599.8966" r="3" fill="#eb0e0e"/><circle stroke="#ab0303" stroke-width="1.0" opacity="1" cx="640.9029" cy="589.84503" r="3" fill="#eb0e0e"/><circle stroke="#ab0303" stroke-width="1.0" opacity="1" cx="640.9353" cy="579.8106" r="3" fill="#eb0e0e"/><circle stroke="#ab0303" stroke-width="1.0" opacity="1" cx="640.912" cy="569.76404" r="3" fill="#eb0e0e"/><circle stroke="#ab0303" stroke-width="1.0" opacity="1" cx="640.8004" cy="559.7309" r="3" fill="#eb0e0e"/><circle stroke="#ab0303" stroke-width="1.0" opacity="1" cx="640.6678" cy="549.7033" r="3" fill="#eb0e0e"/><circle stroke="#ab0303" stroke-width="1.0" opacity="1" cx="640.0696" cy="539.7394" r="3" fill="#eb0e0e"/><circle stroke="#ab0303" stroke-width="1.0" opacity="1" cx="639.62427" cy="529.7763" r="3" fill="#eb0e0e"/><circle stroke="#ab0303" stroke-width="1.0" opacity="1" cx="638.9513" cy="519.7976" r="3" fill="#eb0e0e"/><circle stroke="#ab0303" stroke-width="1.0" opacity="1" cx="638.65497" cy="509.77277" r="3" fill="#eb0e0e"/><circle stroke="#ab0303" stroke-width="1.0" opacity="1" cx="638.6855" cy="499.73904" r="3" fill="#eb0e0e"/><circle stroke="#ab0303" stroke-width="1.0" opacity="1" cx="638.6634" cy="489.7107" r="3" fill="#eb0e0e"/><circle stroke="#ab0303" stroke-width="1.0" opacity="1" cx="638.9908" cy="479.6622" r="3" fill="#eb0e0e"/><circle stroke="#ab0303" stroke-width="1.0" opacity="1" cx="639.22986" cy="469.61646" r="3" fill="#eb0e0e"/><circle stroke="#ab0303" stroke-width="1.0" opacity="1" cx="639.52594" cy="459.56717" r="3" fill="#eb0e0e"/><circle stroke="#ab0303" stroke-width="1.0" opacity="1" cx="639.7768" cy="449.47397" r="3" fill="#eb0e0e"/></g></svg>