<svg xmlns="http://www.w3.org/2000/svg" width="350" height="350"><g transform="translate(-465.0 -345.0)"><g transform="translate(640 640) rotate(0 0 0)"><rect stroke="#6da5f2" stroke-width="2.7" transform-origin="center" x="-9.183566570281982" y="-24.4619083404541" width="18.367133140563965" height="48.9238166809082" rx="3.673426628112793" fill-opacity="1" fill="#d0e5f5"/>1.35<line stroke="#6da5f2" stroke-width="2.7" x1="0" y1="1.35" x2="0" y2="-1.35"/></g><g transform="translate(642.5052776271447 420.0508384059117) rotate(179.16771587729454 0 0)"><rect stroke="#e09634" stroke-width="2.7" transform-origin="center" x="-1.720348298549652" y="-1.720348298549652" width="3.440696597099304" height="3.440696597099304" rx="0.6881393194198608" fill-opacity="1" fill="#fad9af"/>1.35<line stroke="#e09634" stroke-width="2.7" x1="0" y1="1.35" x2="0" y2="-1.35"/></g><g transform="translate(633.7155601850556 420.1432227663861) rotate(90.15903472900389 0 0)"><rect stroke="#e09634" stroke-width="2.7" transform-origin="center" x="-1.720348298549652" y="-1.720348298549652" width="3.440696597099304" height="3.440696597099304" rx="0.6881393194198608" fill-opacity="1" fill="#fad9af"/>1.35<line stroke="#e09634" stroke-width="2.7" x1="0" y1="1.35" x2="0" y2="-1.35"/></g><g transform="translate(623.7186474166084 420.123974501397) rotate(90.18834686279295 0 0)"><rect stroke="#e09634" stroke-width="2.7" transform-origin="center" x="-1.720348298549652" y="-1.720348298549652" width="3.440696597099304" height="3.440696597099304" rx="0.6881393194198608" fill-opacity="1" fill="#fad9af"/>1.35<line stroke="#e09634" stroke-width="2.7" x1="0" y1="1.35" x2="0" y2="-1.35"/></g><g transform="translate(613.7315824646196 420.10945001521236) rotate(0.10441589355467147 0 0)"><rect stroke="#e09634" stroke-width="2.7" transform-origin="center" x="-1.720348298549652" y="-1.720348298549652" width="3.440696597099304" height="3.440696597099304" rx="0.6881393194198608" fill-opacity="1" fill="#fad9af"/>1.35<line stroke="#e09634" stroke-width="2.7" x1="0" y1="1.35" x2="0" y2="-1.35"/></g><g transform="translate(613.6977742987478 440.10895461162704) rotate(0.09860229492185658 0 0)"><rect stroke="#e09634" stroke-width="2.7" transform-origin="center" x="-1.720348298549652" y="-1.720348298549652" width="3.440696597099304" height="3.440696597099304" rx="0.6881393194198608" fill-opacity="1" fill="#fad9af"/>1.35<line stroke="#e09634" stroke-width="2.7" x1="0" y1="1.35" x2="0" y2="-1.35"/></g><g transform="translate(613.6639688498926 460.1090401153749) rotate(0.10012817382811823 0 0)"><rect stroke="#e09634" stroke-width="2.7" transform-origin="center" x="-1.720348298549652" y="-1.720348298549652" width="3.440696597099304" height="3.440696597099304" rx="0.6881393194198608" fill-opacity="1" fill="#fad9af"/>1.35<line stroke="#e09634" stroke-width="2.7" x1="0" y1="1.35" x2="0" y2="-1.35"/></g><g transform="translate(613.6252394928083 480.10676372972057) rotate(0.10279846191405703 0 0)"><rect stroke="#e09634" stroke-width="2.7" transform-origin="center" x="-1.720348298549652" y="-1.720348298549652" width="3.440696597099304" height="3.440696597099304" rx="0.6881393194198608" fill-opacity="1" fill="#fad9af"/>1.35<line stroke="#e09634" stroke-width="2.7" x1="0" y1="1.35" x2="0" y2="-1.35"/></g><g transform="translate(625.1465232375789 550.091893560126) rotate(-89.32709503173828 0 0)"><rect stroke="#e09634" stroke-width="2.7" transform-origin="center" x="-14.352929592132568" y="-11.86714768409729" width="28.705859184265137" height="23.73429536819458" rx="5.741171836853027" fill-opacity="1" fill="#fad9af"/>1.35<line stroke="#e09634" stroke-width="2.7" x1="0" y1="1.35" x2="0" y2="-1.35"/></g><circle stroke="#ab0303" stroke-width="1.0" opacity="1" cx="640.0471" cy="640.03314" r="3" fill="#eb0e0e"/><circle stroke="#ab0303" stroke-width="1.0" opacity="1" cx="639.4851" cy="630.0147" r="3" fill="#eb0e0e"/><circle stroke="#ab0303" stroke-width="1.0" opacity="1" cx="638.81604" cy="620.00793" r="3" fill="#eb0e0e"/><circle stroke="#ab0303" stroke-width="1.0" opacity="1" cx="634.952" cy="611.0284" r="3" fill="#eb0e0e"/><circle stroke="#ab0303" stroke-width="1.0" opacity="1" cx="628.15735" cy="603.61505" r="3" fill="#eb0e0e"/><circle stroke="#ab0303" stroke-width="1.0" opacity="1" cx="620.9218" cy="596.6798" r="3" fill="#eb0e0e"/><circle stroke="#ab0303" stroke-width="1.0" opacity="1" cx="614.5572" cy="588.9326" r="3" fill="#eb0e0e"/><circle stroke="#ab0303" stroke-width="1.0" opacity="1" cx="611.3642" cy="579.54156" r="3" fill="#eb0e0e"/><circle stroke="#ab0303" stroke-width="1.0" opacity="1" cx="611.0853" cy="569.4604" r="3" fill="#eb0e0e"/><circle stroke="#ab0303" stroke-width="1.0" opacity="1" cx="610.996" cy="559.35144" r="3" fill="#eb0e0e"/><circle stroke="#ab0303" stroke-width="1.0" opacity="1" cx="611.03094" cy="549.23096" r="3" fill="#eb0e0e"/><circle stroke="#ab0303" stroke-width="1.0" opacity="1" cx="611.0874" cy="539.1581" r="3" fill="#eb0e0e"/><circle stroke="#ab0303" stroke-width="1.0" opacity="1" cx="611.1324" cy="529.05035" r="3" fill="#eb0e0e"/><circle stroke="#ab0303" stroke-width="1.0" opacity="1" cx="611.10815" cy="518.9216" r="3" fill="#eb0e0e"/><circle stroke="#ab0303" stroke-width="1.0" opacity="1" cx="610.94476" cy="508.8596" r="3" fill="#eb0e0e"/><circle stroke="#ab0303" stroke-width="1.0" opacity="1" cx="610.98773" cy="498.78107" r="3" fill="#eb0e0e"/><circle stroke="#ab0303" stroke-width="1.0" opacity="1" cx="610.99634" cy="488.6906" r="3" fill="#eb0e0e"/><circle stroke="#ab0303" stroke-width="1.0" opacity="1" cx="610.9725" cy="478.62512" r="3" fill="#eb0e0e"/><circle stroke="#ab0303" stroke-width="1.0" opacity="1" cx="610.9666" cy="468.54767" r="3" fill="#eb0e0e"/><circle stroke="#ab0303" stroke-width="1.0" opacity="1" cx="610.83905" cy="458.45963" r="3" fill="#eb0e0e"/></g></svg>