<svg xmlns="http://www.w3.org/2000/svg" width="350" height="350"><g transform="translate(-465.0 -345.0)"><g transform="translate(640 640) rotate(0 0 0)"><rect stroke="#6da5f2" stroke-width="2.7" transform-origin="center" x="-9.183566570281982" y="-24.4619083404541" width="18.367133140563965" height="48.9238166809082" rx="3.673426628112793" fill-opacity="1" fill="#d0e5f5"/>1.35<line stroke="#6da5f2" stroke-width="2.7" x1="0" y1="1.35" x2="0" y2="-1.35"/></g><g transform="translate(660.0052776271447 420.0508384059117) rotate(179.16771587729454 0 0)"><rect stroke="#e09634" stroke-width="2.7" transform-origin="center" x="-1.720348298549652" y="-1.720348298549652" width="3.440696597099304" height="3.440696597099304" rx="0.6881393194198608" fill-opacity="1" fill="#fad9af"/>1.35<line stroke="#e09634" stroke-width="2.7" x1="0" y1="1.35" x2="0" y2="-1.35"/></g><g transform="translate(651.2155601850556 420.1432227663861) rotate(90.15903472900389 0 0)"><rect stroke="#e09634" stroke-width="2.7" transform-origin="center" x="-1.720348298549652" y="-1.720348298549652" width="3.440696597099304" height="3.440696597099304" rx="0.6881393194198608" fill-opacity="1" fill="#fad9af"/>1.35<line stroke="#e09634" stroke-width="2.7" x1="0" y1="1.35" x2="0" y2="-1.35"/></g><g transform="translate(641.2186474166084 420.123974501397) rotate(90.18834686279295 0 0)"><rect stroke="#e09634" stroke-width="2.7" transform-origin="center" x="-1.720348298549652" y="-1.720348298549652" width="3.440696597099304" height="3.440696597099304" rx="0.6881393194198608" fill-opacity="1" fill="#fad9af"/>1.35<line stroke="#e09634" stroke-width="2.7" x1="0" y1="1.35" x2="0" y2="-1.35"/></g><g transform="translate(631.2315824646196 420.10945001521236) rotate(0.10441589355467147 0 0)"><rect stroke="#e09634" stroke-width="2.7" transform-origin="center" x="-1.720348298549652" y="-1.720348298549652" width="3.440696597099304" height="3.440696597099304" rx="0.6881393194198608" fill-opacity="1" fill="#fad9af"/>1.35<line stroke="#e09634" stroke-width="2.7" x1="0" y1="1.35" x2="0" y2="-1.35"/></g><g transform="translate(631.1977742987478 440.10895461162704) rotate(0.09860229492185658 0 0)"><rect stroke="#e09634" stroke-width="2.7" transform-origin="center" x="-1.720348298549652" y="-1.720348298549652" width="3.440696597099304" height="3.440696597099304" rx="0.6881393194198608" fill-opacity="1" fill="#fad9af"/>1.35<line stroke="#e09634" stroke-width="2.7" x1="0" y1="1.35" x2="0" y2="-1.35"/></g><g transform="translate(631.1639688498926 460.1090401153749) rotate(0.10012817382811823 0 0)"><rect stroke="#e09634" stroke-width="2.7" transform-origin="center" x="-1.720348298549652" y="-1.720348298549652" width="3.440696597099304" height="3.440696597099304" rx="0.6881393194198608" fill-opacity="1" fill="#fad9af"/>1.35<line stroke="#e09634" stroke-width="2.7" x1="0" y1="1.35" x2="0" y2="-1.35"/></g><g transform="translate(631.1252394928083 480.10676372972057) rotate(0.10279846191405703 0 0)"><rect stroke="#e09634" stroke-width="2.7" transform-origin="center" x="-1.720348298549652" y="-1.720348298549652" width="3.440696597099304" height="3.440696597099304" rx="0.6881393194198608" fill-opacity="1" fill="#fad9af"/>1.35<line stroke="#e09634" stroke-width="2.7" x1="0" y1="1.35" x2="0" y2="-1.35"/></g><g transform="translate(642.6465232375789 550.091893560126) rotate(-89.32709503173828 0 0)"><rect stroke="#e09634" stroke-width="2.7" transform-origin="center" x="-14.352929592132568" y="-11.86714768409729" width="28.705859184265137" height="23.73429536819458" rx="5.741171836853027" fill-opacity="1" fill="#fad9af"/>1.35<line stroke="#e09634" stroke-width="2.7" x1="0" y1="1.35" x2="0" y2="-1.35"/></g><circle stroke="#ab0303" stroke-width="1.0" opacity="1" cx="640.0441" cy="640.0339" r="3" fill="#eb0e0e"/><circle stroke="#ab0303" stroke-width="1.0" opacity="1" cx="639.6699" cy="630.0051" r="3" fill="#eb0e0e"/><circle stroke="#ab0303" stroke-width="1.0" opacity="1" cx="639.21826" cy="619.9821" r="3" fill="#eb0e0e"/><circle stroke="#ab0303" stroke-width="1.0" opacity="1" cx="635.5702" cy="610.92334" r="3" fill="#eb0e0e"/><circle stroke="#ab0303" stroke-width="1.0" opacity="1" cx="628.95056" cy="603.37915" r="3" fill="#eb0e0e"/><circle stroke="#ab0303" stroke-width="1.0" opacity="1" cx="621.7938" cy="596.42584" r="3" fill="#eb0e0e"/><circle stroke="#ab0303" stroke-width="1.0" opacity="1" cx="615.36694" cy="588.7554" r="3" fill="#eb0e0e"/><circle stroke="#ab0303" stroke-width="1.0" opacity="1" cx="612.0963" cy="579.3979" r="3" fill="#eb0e0e"/><circle stroke="#ab0303" stroke-width="1.0" opacity="1" cx="611.7918" cy="569.3267" r="3" fill="#eb0e0e"/><circle stroke="#ab0303" stroke-width="1.0" opacity="1" cx="611.68866" cy="559.2244" r="3" fill="#eb0e0e"/><circle stroke="#ab0303" stroke-width="1.0" opacity="1" cx="611.7405" cy="549.10846" r="3" fill="#eb0e0e"/><circle stroke="#ab0303" stroke-width="1.0" opacity="1" cx="611.78986" cy="539.0416" r="3" fill="#eb0e0e"/><circle stroke="#ab0303" stroke-width="1.0" opacity="1" cx="611.8571" cy="528.9253" r="3" fill="#eb0e0e"/><circle stroke="#ab0303" stroke-width="1.0" opacity="1" cx="611.89075" cy="518.79675" r="3" fill="#eb0e0e"/><circle stroke="#ab0303" stroke-width="1.0" opacity="1" cx="611.8307" cy="508.71332" r="3" fill="#eb0e0e"/><circle stroke="#ab0303" stroke-width="1.0" opacity="1" cx="611.92633" cy="498.62454" r="3" fill="#eb0e0e"/><circle stroke="#ab0303" stroke-width="1.0" opacity="1" cx="611.9686" cy="488.5291" r="3" fill="#eb0e0e"/><circle stroke="#ab0303" stroke-width="1.0" opacity="1" cx="611.97015" cy="478.46436" r="3" fill="#eb0e0e"/><circle stroke="#ab0303" stroke-width="1.0" opacity="1" cx="611.97943" cy="468.3895" r="3" fill="#eb0e0e"/><circle stroke="#ab0303" stroke-width="1.0" opacity="1" cx="611.8962" cy="458.29376" r="3" fill="#eb0e0e"/></g></svg>