<svg xmlns="http://www.w3.org/2000/svg" width="350" height="350"><g transform="translate(-465.0 -345.0)"><g transform="translate(640 640) rotate(0 0 0)"><rect stroke="#6da5f2" stroke-width="2.7" transform-origin="center" x="-9.183566570281982" y="-24.4619083404541" width="18.367133140563965" height="48.9238166809082" rx="3.673426628112793" fill-opacity="1" fill="#d0e5f5"/>1.35<line stroke="#6da5f2" stroke-width="2.7" x1="0" y1="1.35" x2="0" y2="-1.35"/></g><g transform="translate(700.0052776271447 420.0508384059117) rotate(179.16771587729454 0 0)"><rect stroke="#e09634" stroke-width="2.7" transform-origin="center" x="-1.720348298549652" y="-1.720348298549652" width="3.440696597099304" height="3.440696597099304" rx="0.6881393194198608" fill-opacity="1" fill="#fad9af"/>1.35<line stroke="#e09634" stroke-width="2.7" x1="0" y1="1.35" x2="0" y2="-1.35"/></g><g transform="translate(691.2155601850556 420.1432227663861) rotate(90.15903472900389 0 0)"><rect stroke="#e09634" stroke-width="2.7" transform-origin="center" x="-1.720348298549652" y="-1.720348298549652" width="3.440696597099304" height="3.440696597099304" rx="0.6881393194198608" fill-opacity="1" fill="#fad9af"/>1.35<line stroke="#e09634" stroke-width="2.7" x1="0" y1="1.35" x2="0" y2="-1.35"/></g><g transform="translate(681.2186474166084 420.123974501397) rotate(90.18834686279295 0 0)"><rect stroke="#e09634" stroke-width="2.7" transform-origin="center" x="-1.720348298549652" y="-1.720348298549652" width="3.440696597099304" height="3.440696597099304" rx="0.6881393194198608" fill-opacity="1" fill="#fad9af"/>1.35<line stroke="#e09634" stroke-width="2.7" x1="0" y1="1.35" x2="0" y2="-1.35"/></g><g transform="translate(671.2315824646196 420.10945001521236) rotate(0.10441589355467147 0 0)"><rect stroke="#e09634" stroke-width="2.7" transform-origin="center" x="-1.720348298549652" y="-1.720348298549652" width="3.440696597099304" height="3.440696597099304" rx="0.6881393194198608" fill-opacity="1" fill="#fad9af"/>1.35<line stroke="#e09634" stroke-width="2.7" x1="0" y1="1.35" x2="0" y2="-1.35"/></g><g transform="translate(671.1977742987478 440.10895461162704) rotate(0.09860229492185658 0 0)"><rect stroke="#e09634" stroke-width="2.7" transform-origin="center" x="-1.720348298549652" y="-1.720348298549652" width="3.440696597099304" height="3.440696597099304" rx="0.6881393194198608" fill-opacity="1" fill="#fad9af"/>1.35<line stroke="#e09634" stroke-width="2.7" x1="0" y1="1.35" x2="0" y2="-1.35"/></g><g transform="translate(671.1639688498926 460.1090401153749) rotate(0.10012817382811823 0 0)"><rect stroke="#e09634" stroke-width="2.7" transform-origin="center" x="-1.720348298549652" y="-1.720348298549652" width="3.440696597099304" height="3.440696597099304" rx="0.6881393194198608" fill-opacity="1" fill="#fad9af"/>1.35<line stroke="#e09634" stroke-width="2.7" x1="0" y1="1.35" x2="0" y2="-1.35"/></g><g transform="translate(671.1252394928083 480.10676372972057) rotate(0.10279846191405703 0 0)"><rect stroke="#e09634" stroke-width="2.7" transform-origin="center" x="-1.720348298549652" y="-1.720348298549652" width="3.440696597099304" height="3.440696597099304" rx="0.6881393194198608" fill-opacity="1" fill="#fad9af"/>1.35<line stroke="#e09634" stroke-width="2.7" x1="0" y1="1.35" x2="0" y2="-1.35"/></g><g transform="translate(682.6465232375789 550.091893560126) rotate(-89.32709503173828 0 0)"><rect stroke="#e09634" stroke-width="2.7" transform-origin="center" x="-14.352929592132568" y="-11.86714768409729" width="28.705859184265137" height="23.73429536819458" rx="5.741171836853027" fill-opacity="1" fill="#fad9af"/>1.35<line stroke="#e09634" stroke-width="2.7" x1="0" y1="1.35" x2="0" y2="-1.35"/></g><circle stroke="#ab0303" stroke-width="1.0" opacity="1" cx="640.33417" cy="640.0616" r="3" fill="#eb0e0e"/><circle stroke="#ab0303" stroke-width="1.0" opacity="1" cx="640.28955" cy="630.02484" r="3" fill="#eb0e0e"/><circle stroke="#ab0303" stroke-width="1.0" opacity="1" cx="640.31744" cy="619.98145" r="3" fill="#eb0e0e"/><circle stroke="#ab0303" stroke-width="1.0" opacity="1" cx="640.3806" cy="609.9394" r="3" fill="#eb0e0e"/><circle stroke="#ab0303" stroke-width="1.0" opacity="1" cx="640.5476" cy="599.88824" r="3" fill="#eb0e0e"/><circle stroke="#ab0303" stroke-width="1.0" opacity="1" cx="640.693" cy="589.82806" r="3" fill="#eb0e0e"/><circle stroke="#ab0303" stroke-width="1.0" opacity="1" cx="640.63165" cy="579.80334" r="3" fill="#eb0e0e"/><circle stroke="#ab0303" stroke-width="1.0" opacity="1" cx="640.4849" cy="569.7749" r="3" fill="#eb0e0e"/><circle stroke="#ab0303" stroke-width="1.0" opacity="1" cx="640.16675" cy="559.7672" r="3" fill="#eb0e0e"/><circle stroke="#ab0303" stroke-width="1.0" opacity="1" cx="639.73566" cy="549.78894" r="3" fill="#eb0e0e"/><circle stroke="#ab0303" stroke-width="1.0" opacity="1" cx="638.4052" cy="539.94446" r="3" fill="#eb0e0e"/><circle stroke="#ab0303" stroke-width="1.0" opacity="1" cx="637.51404" cy="530.0753" r="3" fill="#eb0e0e"/><circle stroke="#ab0303" stroke-width="1.0" opacity="1" cx="636.3977" cy="520.17065" r="3" fill="#eb0e0e"/><circle stroke="#ab0303" stroke-width="1.0" opacity="1" cx="636.00366" cy="510.16898" r="3" fill="#eb0e0e"/><circle stroke="#ab0303" stroke-width="1.0" opacity="1" cx="635.9438" cy="500.1491" r="3" fill="#eb0e0e"/><circle stroke="#ab0303" stroke-width="1.0" opacity="1" cx="635.9073" cy="490.12357" r="3" fill="#eb0e0e"/><circle stroke="#ab0303" stroke-width="1.0" opacity="1" cx="636.30066" cy="480.08197" r="3" fill="#eb0e0e"/><circle stroke="#ab0303" stroke-width="1.0" opacity="1" cx="636.58057" cy="470.03644" r="3" fill="#eb0e0e"/><circle stroke="#ab0303" stroke-width="1.0" opacity="1" cx="636.94415" cy="459.99408" r="3" fill="#eb0e0e"/><circle stroke="#ab0303" stroke-width="1.0" opacity="1" cx="637.2384" cy="449.8984" r="3" fill="#eb0e0e"/></g></svg>