<svg xmlns="http://www.w3.org/2000/svg" width="350" height="350"><g transform="translate(-465.0 -345.0)"><g transform="translate(640 640) rotate(0 0 0)"><rect stroke="#6da5f2" stroke-width="2.7" transform-origin="center" x="-9.183566570281982" y="-24.4619083404541" width="18.367133140563965" height="48.9238166809082" rx="3.673426628112793" fill-opacity="1" fill="#d0e5f5"/>1.35<line stroke="#6da5f2" stroke-width="2.7" x1="0" y1="1.35" x2="0" y2="-1.35"/></g><circle stroke="#ab0303" stroke-width="1.0" opacity="1" cx="638.55743" cy="639.9826" r="3" fill="#eb0e0e"/><circle stroke="#ab0303" stroke-width="1.0" opacity="1" cx="637.9669" cy="629.9469" r="3" fill="#eb0e0e"/><circle stroke="#ab0303" stroke-width="1.0" opacity="1" cx="637.1192" cy="619.8757" r="3" fill="#eb0e0e"/><circle stroke="#ab0303" stroke-width="1.0" opacity="1" cx="635.8411" cy="610.006" r="3" fill="#eb0e0e"/><circle stroke="#ab0303" stroke-width="1.0" opacity="1" cx="633.8475" cy="600.44305" r="3" fill="#eb0e0e"/><circle stroke="#ab0303" stroke-width="1.0" opacity="1" cx="634.31573" cy="590.6015" r="3" fill="#eb0e0e"/><circle stroke="#ab0303" stroke-width="1.0" opacity="1" cx="636.2384" cy="580.8846" r="3" fill="#eb0e0e"/><circle stroke="#ab0303" stroke-width="1.0" opacity="1" cx="640.13385" cy="571.64075" r="3" fill="#eb0e0e"/><circle stroke="#ab0303" stroke-width="1.0" opacity="1" cx="644.4649" cy="562.47894" r="3" fill="#eb0e0e"/><circle stroke="#ab0303" stroke-width="1.0" opacity="1" cx="648.9504" cy="553.3972" r="3" fill="#eb0e0e"/><circle stroke="#ab0303" stroke-width="1.0" opacity="1" cx="653.36664" cy="544.2852" r="3" fill="#eb0e0e"/><circle stroke="#ab0303" stroke-width="1.0" opacity="1" cx="658.25354" cy="535.45776" r="3" fill="#eb0e0e"/><circle stroke="#ab0303" stroke-width="1.0" opacity="1" cx="663.1578" cy="526.54083" r="3" fill="#eb0e0e"/><circle stroke="#ab0303" stroke-width="1.0" opacity="1" cx="667.8912" cy="517.63434" r="3" fill="#eb0e0e"/><circle stroke="#ab0303" stroke-width="1.0" opacity="1" cx="672.70123" cy="508.69904" r="3" fill="#eb0e0e"/><circle stroke="#ab0303" stroke-width="1.0" opacity="1" cx="677.5809" cy="499.82248" r="3" fill="#eb0e0e"/><circle stroke="#ab0303" stroke-width="1.0" opacity="1" cx="682.3454" cy="490.86237" r="3" fill="#eb0e0e"/><circle stroke="#ab0303" stroke-width="1.0" opacity="1" cx="687.0046" cy="481.89948" r="3" fill="#eb0e0e"/><circle stroke="#ab0303" stroke-width="1.0" opacity="1" cx="691.689" cy="472.95166" r="3" fill="#eb0e0e"/><circle stroke="#ab0303" stroke-width="1.0" opacity="1" cx="696.3135" cy="463.91406" r="3" fill="#eb0e0e"/><circle stroke="#05961a" stroke-width="1.1666666666666667" opacity="1" cx="634.8918" cy="620.4923" r="3.5" fill="#00cf1f"/><circle stroke="#05961a" stroke-width="1.1666666666666667" opacity="1" cx="637.3362" cy="597.6955" r="3.5" fill="#00cf1f"/><circle stroke="#05961a" stroke-width="1.1666666666666667" opacity="1" cx="646.17645" cy="573.06903" r="3.5" fill="#00cf1f"/><circle stroke="#05961a" stroke-width="1.1666666666666667" opacity="1" cx="658.7173" cy="545.92444" r="3.5" fill="#00cf1f"/><circle stroke="#05961a" stroke-width="1.1666666666666667" opacity="1" cx="673.37756" cy="516.79395" r="3.5" fill="#00cf1f"/><circle stroke="#05961a" stroke-width="1.1666666666666667" opacity="1" cx="689.5009" cy="488.16345" r="3.5" fill="#00cf1f"/><circle stroke="#05961a" stroke-width="1.1666666666666667" opacity="1" cx="707.5881" cy="459.90137" r="3.5" fill="#00cf1f"/><circle stroke="#05961a" stroke-width="1.1666666666666667" opacity="1" cx="726.0155" cy="432.1436" r="3.5" fill="#00cf1f"/></g></svg>