<svg xmlns="http://www.w3.org/2000/svg" width="350" height="350"><g transform="translate(-465.0 -345.0)"><g transform="translate(640 640) rotate(0 0 0)"><rect stroke="#6da5f2" stroke-width="2.7" transform-origin="center" x="-9.183566570281982" y="-24.4619083404541" width="18.367133140563965" height="48.9238166809082" rx="3.673426628112793" fill-opacity="1" fill="#d0e5f5"/>1.35<line stroke="#6da5f2" stroke-width="2.7" x1="0" y1="1.35" x2="0" y2="-1.35"/></g><circle stroke="#ab0303" stroke-width="1.0" opacity="1" cx="638.50464" cy="639.9843" r="3" fill="#eb0e0e"/><circle stroke="#ab0303" stroke-width="1.0" opacity="1" cx="637.8321" cy="629.9554" r="3" fill="#eb0e0e"/><circle stroke="#ab0303" stroke-width="1.0" opacity="1" cx="636.8809" cy="619.8863" r="3" fill="#eb0e0e"/><circle stroke="#ab0303" stroke-width="1.0" opacity="1" cx="635.43976" cy="610.03394" r="3" fill="#eb0e0e"/><circle stroke="#ab0303" stroke-width="1.0" opacity="1" cx="633.06085" cy="600.51953" r="3" fill="#eb0e0e"/><circle stroke="#ab0303" stroke-width="1.0" opacity="1" cx="633.1212" cy="590.6673" r="3" fill="#eb0e0e"/><circle stroke="#ab0303" stroke-width="1.0" opacity="1" cx="634.6411" cy="580.9027" r="3" fill="#eb0e0e"/><circle stroke="#ab0303" stroke-width="1.0" opacity="1" cx="638.3695" cy="571.5909" r="3" fill="#eb0e0e"/><circle stroke="#ab0303" stroke-width="1.0" opacity="1" cx="642.5755" cy="562.37085" r="3" fill="#eb0e0e"/><circle stroke="#ab0303" stroke-width="1.0" opacity="1" cx="646.92834" cy="553.2229" r="3" fill="#eb0e0e"/><circle stroke="#ab0303" stroke-width="1.0" opacity="1" cx="651.20874" cy="544.0525" r="3" fill="#eb0e0e"/><circle stroke="#ab0303" stroke-width="1.0" opacity="1" cx="655.9625" cy="535.15466" r="3" fill="#eb0e0e"/><circle stroke="#ab0303" stroke-width="1.0" opacity="1" cx="660.7313" cy="526.18115" r="3" fill="#eb0e0e"/><circle stroke="#ab0303" stroke-width="1.0" opacity="1" cx="665.31824" cy="517.1961" r="3" fill="#eb0e0e"/><circle stroke="#ab0303" stroke-width="1.0" opacity="1" cx="669.9985" cy="508.20142" r="3" fill="#eb0e0e"/><circle stroke="#ab0303" stroke-width="1.0" opacity="1" cx="674.731" cy="499.24445" r="3" fill="#eb0e0e"/><circle stroke="#ab0303" stroke-width="1.0" opacity="1" cx="679.3478" cy="490.20667" r="3" fill="#eb0e0e"/><circle stroke="#ab0303" stroke-width="1.0" opacity="1" cx="683.8439" cy="481.15527" r="3" fill="#eb0e0e"/><circle stroke="#ab0303" stroke-width="1.0" opacity="1" cx="688.3626" cy="472.12115" r="3" fill="#eb0e0e"/><circle stroke="#ab0303" stroke-width="1.0" opacity="1" cx="692.8381" cy="463.00714" r="3" fill="#eb0e0e"/><circle stroke="#05961a" stroke-width="1.1666666666666667" opacity="1" cx="634.5942" cy="620.4434" r="3.5" fill="#00cf1f"/><circle stroke="#05961a" stroke-width="1.1666666666666667" opacity="1" cx="635.95306" cy="597.7531" r="3.5" fill="#00cf1f"/><circle stroke="#05961a" stroke-width="1.1666666666666667" opacity="1" cx="644.2003" cy="573.0491" r="3.5" fill="#00cf1f"/><circle stroke="#05961a" stroke-width="1.1666666666666667" opacity="1" cx="656.1744" cy="545.9114" r="3.5" fill="#00cf1f"/><circle stroke="#05961a" stroke-width="1.1666666666666667" opacity="1" cx="670.43494" cy="516.6138" r="3.5" fill="#00cf1f"/><circle stroke="#05961a" stroke-width="1.1666666666666667" opacity="1" cx="686.14777" cy="487.79282" r="3.5" fill="#00cf1f"/><circle stroke="#05961a" stroke-width="1.1666666666666667" opacity="1" cx="703.8617" cy="459.26187" r="3.5" fill="#00cf1f"/><circle stroke="#05961a" stroke-width="1.1666666666666667" opacity="1" cx="721.9624" cy="431.0946" r="3.5" fill="#00cf1f"/></g></svg>