<svg xmlns="http://www.w3.org/2000/svg" width="350" height="350"><g transform="translate(-465.0 -345.0)"><g transform="translate(640 640) rotate(0 0 0)"><rect stroke="#6da5f2" stroke-width="2.7" transform-origin="center" x="-9.183566570281982" y="-24.4619083404541" width="18.367133140563965" height="48.9238166809082" rx="3.673426628112793" fill-opacity="1" fill="#d0e5f5"/>1.35<line stroke="#6da5f2" stroke-width="2.7" x1="0" y1="1.35" x2="0" y2="-1.35"/></g><circle stroke="#ab0303" stroke-width="1.0" opacity="1" cx="639.76685" cy="639.9931" r="3" fill="#eb0e0e"/><circle stroke="#ab0303" stroke-width="1.0" opacity="1" cx="639.9908" cy="629.942" r="3" fill="#eb0e0e"/><circle stroke="#ab0303" stroke-width="1.0" opacity="1" cx="640.1486" cy="619.87805" r="3" fill="#eb0e0e"/><circle stroke="#ab0303" stroke-width="1.0" opacity="1" cx="640.6166" cy="610.03015" r="3" fill="#eb0e0e"/><circle stroke="#ab0303" stroke-width="1.0" opacity="1" cx="641.77454" cy="600.51215" r="3" fill="#eb0e0e"/><circle stroke="#ab0303" stroke-width="1.0" opacity="1" cx="644.8282" cy="591.09564" r="3" fill="#eb0e0e"/><circle stroke="#ab0303" stroke-width="1.0" opacity="1" cx="648.8631" cy="581.8779" r="3" fill="#eb0e0e"/><circle stroke="#ab0303" stroke-width="1.0" opacity="1" cx="654.0007" cy="573.21576" r="3" fill="#eb0e0e"/><circle stroke="#ab0303" stroke-width="1.0" opacity="1" cx="659.4415" cy="564.64264" r="3" fill="#eb0e0e"/><circle stroke="#ab0303" stroke-width="1.0" opacity="1" cx="664.9703" cy="556.2175" r="3" fill="#eb0e0e"/><circle stroke="#ab0303" stroke-width="1.0" opacity="1" cx="670.6954" cy="547.77563" r="3" fill="#eb0e0e"/><circle stroke="#ab0303" stroke-width="1.0" opacity="1" cx="676.81805" cy="539.76227" r="3" fill="#eb0e0e"/><circle stroke="#ab0303" stroke-width="1.0" opacity="1" cx="683.0191" cy="531.57654" r="3" fill="#eb0e0e"/><circle stroke="#ab0303" stroke-width="1.0" opacity="1" cx="689.0921" cy="523.5628" r="3" fill="#eb0e0e"/><circle stroke="#ab0303" stroke-width="1.0" opacity="1" cx="694.96936" cy="515.24927" r="3" fill="#eb0e0e"/><circle stroke="#ab0303" stroke-width="1.0" opacity="1" cx="700.98566" cy="507.1019" r="3" fill="#eb0e0e"/><circle stroke="#ab0303" stroke-width="1.0" opacity="1" cx="706.9743" cy="498.89215" r="3" fill="#eb0e0e"/><circle stroke="#ab0303" stroke-width="1.0" opacity="1" cx="712.89813" cy="490.71756" r="3" fill="#eb0e0e"/><circle stroke="#ab0303" stroke-width="1.0" opacity="1" cx="718.8468" cy="482.60114" r="3" fill="#eb0e0e"/><circle stroke="#ab0303" stroke-width="1.0" opacity="1" cx="724.64624" cy="474.31097" r="3" fill="#eb0e0e"/><circle stroke="#05961a" stroke-width="1.1666666666666667" opacity="1" cx="638.8361" cy="619.4336" r="3.5" fill="#00cf1f"/><circle stroke="#05961a" stroke-width="1.1666666666666667" opacity="1" cx="647.4804" cy="597.22394" r="3.5" fill="#00cf1f"/><circle stroke="#05961a" stroke-width="1.1666666666666667" opacity="1" cx="661.2543" cy="573.9209" r="3.5" fill="#00cf1f"/><circle stroke="#05961a" stroke-width="1.1666666666666667" opacity="1" cx="677.97473" cy="548.7052" r="3.5" fill="#00cf1f"/><circle stroke="#05961a" stroke-width="1.1666666666666667" opacity="1" cx="695.72437" cy="521.47034" r="3.5" fill="#00cf1f"/><circle stroke="#05961a" stroke-width="1.1666666666666667" opacity="1" cx="715.3587" cy="494.7902" r="3.5" fill="#00cf1f"/><circle stroke="#05961a" stroke-width="1.1666666666666667" opacity="1" cx="736.16376" cy="469.24484" r="3.5" fill="#00cf1f"/><circle stroke="#05961a" stroke-width="1.1666666666666667" opacity="1" cx="756.3722" cy="445.0818" r="3.5" fill="#00cf1f"/></g></svg>