<svg xmlns="http://www.w3.org/2000/svg" width="350" height="350"><g transform="translate(-465.0 -345.0)"><g transform="translate(640 640) rotate(0 0 0)"><rect stroke="#6da5f2" stroke-width="2.7" transform-origin="center" x="-9.183566570281982" y="-24.4619083404541" width="18.367133140563965" height="48.9238166809082" rx="3.673426628112793" fill-opacity="1" fill="#d0e5f5"/>1.35<line stroke="#6da5f2" stroke-width="2.7" x1="0" y1="1.35" x2="0" y2="-1.35"/></g><circle stroke="#ab0303" stroke-width="1.0" opacity="1" cx="640.3303" cy="640.0638" r="3" fill="#eb0e0e"/><circle stroke="#ab0303" stroke-width="1.0" opacity="1" cx="639.2319" cy="630.0924" r="3" fill="#eb0e0e"/><circle stroke="#ab0303" stroke-width="1.0" opacity="1" cx="638.0185" cy="620.0989" r="3" fill="#eb0e0e"/><circle stroke="#ab0303" stroke-width="1.0" opacity="1" cx="633.8772" cy="611.2423" r="3" fill="#eb0e0e"/><circle stroke="#ab0303" stroke-width="1.0" opacity="1" cx="627.1965" cy="603.70514" r="3" fill="#eb0e0e"/><circle stroke="#ab0303" stroke-width="1.0" opacity="1" cx="620.1618" cy="596.51483" r="3" fill="#eb0e0e"/><circle stroke="#ab0303" stroke-width="1.0" opacity="1" cx="614.4495" cy="588.26184" r="3" fill="#eb0e0e"/><circle stroke="#ab0303" stroke-width="1.0" opacity="1" cx="611.9107" cy="578.6572" r="3" fill="#eb0e0e"/><circle stroke="#ab0303" stroke-width="1.0" opacity="1" cx="612.0802" cy="568.5421" r="3" fill="#eb0e0e"/><circle stroke="#ab0303" stroke-width="1.0" opacity="1" cx="612.63824" cy="558.4408" r="3" fill="#eb0e0e"/><circle stroke="#ab0303" stroke-width="1.0" opacity="1" cx="613.08167" cy="548.31946" r="3" fill="#eb0e0e"/><circle stroke="#ab0303" stroke-width="1.0" opacity="1" cx="613.66956" cy="538.2222" r="3" fill="#eb0e0e"/><circle stroke="#ab0303" stroke-width="1.0" opacity="1" cx="614.16504" cy="528.14386" r="3" fill="#eb0e0e"/><circle stroke="#ab0303" stroke-width="1.0" opacity="1" cx="614.6627" cy="518.0418" r="3" fill="#eb0e0e"/><circle stroke="#ab0303" stroke-width="1.0" opacity="1" cx="615.2204" cy="507.93805" r="3" fill="#eb0e0e"/><circle stroke="#ab0303" stroke-width="1.0" opacity="1" cx="615.8589" cy="497.84314" r="3" fill="#eb0e0e"/><circle stroke="#ab0303" stroke-width="1.0" opacity="1" cx="616.5234" cy="487.76724" r="3" fill="#eb0e0e"/><circle stroke="#ab0303" stroke-width="1.0" opacity="1" cx="616.9925" cy="477.71246" r="3" fill="#eb0e0e"/><circle stroke="#ab0303" stroke-width="1.0" opacity="1" cx="617.4717" cy="467.66632" r="3" fill="#eb0e0e"/><circle stroke="#ab0303" stroke-width="1.0" opacity="1" cx="617.9385" cy="457.57556" r="3" fill="#eb0e0e"/><circle stroke="#05961a" stroke-width="1.1666666666666667" opacity="1" cx="640.30865" cy="640.084" r="3.5" fill="#00cf1f"/><circle stroke="#05961a" stroke-width="1.1666666666666667" opacity="1" cx="640.2989" cy="640.11707" r="3.5" fill="#00cf1f"/><circle stroke="#05961a" stroke-width="1.1666666666666667" opacity="1" cx="640.29095" cy="640.105" r="3.5" fill="#00cf1f"/><circle stroke="#05961a" stroke-width="1.1666666666666667" opacity="1" cx="640.2854" cy="640.1467" r="3.5" fill="#00cf1f"/><circle stroke="#05961a" stroke-width="1.1666666666666667" opacity="1" cx="640.2846" cy="640.19183" r="3.5" fill="#00cf1f"/><circle stroke="#05961a" stroke-width="1.1666666666666667" opacity="1" cx="640.2842" cy="640.2588" r="3.5" fill="#00cf1f"/><circle stroke="#05961a" stroke-width="1.1666666666666667" opacity="1" cx="640.2783" cy="640.2852" r="3.5" fill="#00cf1f"/><circle stroke="#05961a" stroke-width="1.1666666666666667" opacity="1" cx="640.2657" cy="640.22076" r="3.5" fill="#00cf1f"/></g></svg>