<svg xmlns="http://www.w3.org/2000/svg" width="350" height="350"><g transform="translate(-465.0 -345.0)"><g transform="translate(640 640) rotate(0 0 0)"><rect stroke="#6da5f2" stroke-width="2.7" transform-origin="center" x="-9.183566570281982" y="-24.4619083404541" width="18.367133140563965" height="48.9238166809082" rx="3.673426628112793" fill-opacity="1" fill="#d0e5f5"/>1.35<line stroke="#6da5f2" stroke-width="2.7" x1="0" y1="1.35" x2="0" y2="-1.35"/></g><circle stroke="#ab0303" stroke-width="1.0" opacity="1" cx="644.4352" cy="640.32184" r="3" fill="#eb0e0e"/><circle stroke="#ab0303" stroke-width="1.0" opacity="1" cx="645.2536" cy="630.3181" r="3" fill="#eb0e0e"/><circle stroke="#ab0303" stroke-width="1.0" opacity="1" cx="646.38635" cy="620.32324" r="3" fill="#eb0e0e"/><circle stroke="#ab0303" stroke-width="1.0" opacity="1" cx="648.9216" cy="610.7169" r="3" fill="#eb0e0e"/><circle stroke="#ab0303" stroke-width="1.0" opacity="1" cx="652.5966" cy="601.5628" r="3" fill="#eb0e0e"/><circle stroke="#ab0303" stroke-width="1.0" opacity="1" cx="657.27734" cy="592.75616" r="3" fill="#eb0e0e"/><circle stroke="#ab0303" stroke-width="1.0" opacity="1" cx="662.86475" cy="584.25543" r="3" fill="#eb0e0e"/><circle stroke="#ab0303" stroke-width="1.0" opacity="1" cx="669.508" cy="576.47266" r="3" fill="#eb0e0e"/><circle stroke="#ab0303" stroke-width="1.0" opacity="1" cx="676.86945" cy="569.2225" r="3" fill="#eb0e0e"/><circle stroke="#ab0303" stroke-width="1.0" opacity="1" cx="683.93536" cy="561.9793" r="3" fill="#eb0e0e"/><circle stroke="#ab0303" stroke-width="1.0" opacity="1" cx="691.5014" cy="554.97375" r="3" fill="#eb0e0e"/><circle stroke="#ab0303" stroke-width="1.0" opacity="1" cx="699.6895" cy="548.7698" r="3" fill="#eb0e0e"/><circle stroke="#ab0303" stroke-width="1.0" opacity="1" cx="707.5443" cy="542.03186" r="3" fill="#eb0e0e"/><circle stroke="#ab0303" stroke-width="1.0" opacity="1" cx="715.5046" cy="535.62305" r="3" fill="#eb0e0e"/><circle stroke="#ab0303" stroke-width="1.0" opacity="1" cx="723.1837" cy="528.7571" r="3" fill="#eb0e0e"/><circle stroke="#ab0303" stroke-width="1.0" opacity="1" cx="730.8199" cy="521.95715" r="3" fill="#eb0e0e"/><circle stroke="#ab0303" stroke-width="1.0" opacity="1" cx="738.53986" cy="515.12115" r="3" fill="#eb0e0e"/><circle stroke="#ab0303" stroke-width="1.0" opacity="1" cx="746.32654" cy="508.47064" r="3" fill="#eb0e0e"/><circle stroke="#ab0303" stroke-width="1.0" opacity="1" cx="753.9516" cy="501.7931" r="3" fill="#eb0e0e"/><circle stroke="#ab0303" stroke-width="1.0" opacity="1" cx="761.27246" cy="494.76898" r="3" fill="#eb0e0e"/><circle stroke="#05961a" stroke-width="1.1666666666666667" opacity="1" cx="645.179" cy="617.3091" r="3.5" fill="#00cf1f"/><circle stroke="#05961a" stroke-width="1.1666666666666667" opacity="1" cx="657.461" cy="596.58344" r="3.5" fill="#00cf1f"/><circle stroke="#05961a" stroke-width="1.1666666666666667" opacity="1" cx="674.9542" cy="576.359" r="3.5" fill="#00cf1f"/><circle stroke="#05961a" stroke-width="1.1666666666666667" opacity="1" cx="694.60425" cy="556.6036" r="3.5" fill="#00cf1f"/><circle stroke="#05961a" stroke-width="1.1666666666666667" opacity="1" cx="715.3334" cy="534.1606" r="3.5" fill="#00cf1f"/><circle stroke="#05961a" stroke-width="1.1666666666666667" opacity="1" cx="737.46686" cy="513.19293" r="3.5" fill="#00cf1f"/><circle stroke="#05961a" stroke-width="1.1666666666666667" opacity="1" cx="759.7356" cy="494.3109" r="3.5" fill="#00cf1f"/><circle stroke="#05961a" stroke-width="1.1666666666666667" opacity="1" cx="780.8407" cy="477.52438" r="3.5" fill="#00cf1f"/></g></svg>