<svg xmlns="http://www.w3.org/2000/svg" width="350" height="350"><g transform="translate(-465.0 -345.0)"><g transform="translate(615.1879894375734 909.1045527512256) rotate(176.75007247924808 0 0)"><rect stroke="#6da5f2" stroke-width="2.7" transform-origin="center" x="-9.059062600135803" y="-23.368194103240967" width="18.118125200271606" height="46.736388206481934" rx="3.6236250400543213" fill-opacity="1" fill="#d0e5f5"/>72.38495432167187<line stroke="#6da5f2" stroke-width="2.7" x1="0" y1="1.35" x2="0" y2="-72.38495432167187"/></g><g transform="translate(611.161760866083 58.30877629604345) rotate(-179.5797414779663 0 0)"><rect stroke="#6da5f2" stroke-width="2.7" transform-origin="center" x="-9.059062600135803" y="-23.368194103240967" width="18.118125200271606" height="46.736388206481934" rx="3.6236250400543213" fill-opacity="1" fill="#d0e5f5"/>56.538496002665816<line stroke="#6da5f2" stroke-width="2.7" x1="0" y1="1.35" x2="0" y2="-56.538496002665816"/></g><g transform="translate(609.6521059152949 466.3273776010655) rotate(179.7101860046387 0 0)"><rect stroke="#6da5f2" stroke-width="2.7" transform-origin="center" x="-10.749834775924683" y="-27.82914400100708" width="21.499669551849365" height="55.65828800201416" rx="4.299933910369873" fill-opacity="1" fill="#d0e5f5"/>73.26273385722178<line stroke="#6da5f2" stroke-width="2.7" x1="0" y1="1.35" x2="0" y2="-73.26273385722178"/></g><g transform="translate(656.8297805671441 1034.3217824621959) rotate(-5.4171142578125 0 0)"><rect stroke="#6da5f2" stroke-width="2.7" transform-origin="center" x="-9.183566570281982" y="-24.4619083404541" width="18.367133140563965" height="48.9238166809082" rx="3.673426628112793" fill-opacity="1" fill="#d0e5f5"/>72.52054799025164<line stroke="#6da5f2" stroke-width="2.7" x1="0" y1="1.35" x2="0" y2="-72.52054799025164"/></g><g transform="translate(642.4350661629976 799.4237793670598) rotate(-1.501922607421875 0 0)"><rect stroke="#6da5f2" stroke-width="2.7" transform-origin="center" x="-9.059062600135803" y="-23.368194103240967" width="18.118125200271606" height="46.736388206481934" rx="3.6236250400543213" fill-opacity="1" fill="#d0e5f5"/>66.79544258778641<line stroke="#6da5f2" stroke-width="2.7" x1="0" y1="1.35" x2="0" y2="-66.79544258778641"/></g><g transform="translate(641.7669030348186 183.87413785806615) rotate(0.9428558349609544 0 0)"><rect stroke="#6da5f2" stroke-width="2.7" transform-origin="center" x="-10.166014432907104" y="-26.787397861480713" width="20.33202886581421" height="53.574795722961426" rx="4.066405773162842" fill-opacity="1" fill="#d0e5f5"/>1.35<line stroke="#6da5f2" stroke-width="2.7" x1="0" y1="1.35" x2="0" y2="-1.35"/></g><g transform="translate(641.3734172172647 54.048004807784764) rotate(0.19285583496095018 0 0)"><rect stroke="#6da5f2" stroke-width="2.7" transform-origin="center" x="-10.166014432907104" y="-26.787397861480713" width="20.33202886581421" height="53.574795722961426" rx="4.066405773162842" fill-opacity="1" fill="#d0e5f5"/>1.35<line stroke="#6da5f2" stroke-width="2.7" x1="0" y1="1.35" x2="0" y2="-1.35"/></g><g transform="translate(649.7809402644978 410.9953931385803) rotate(0.19309997558594186 0 0)"><rect stroke="#6da5f2" stroke-width="2.7" transform-origin="center" x="-10.749834775924683" y="-27.82914400100708" width="21.499669551849365" height="55.65828800201416" rx="4.299933910369873" fill-opacity="1" fill="#d0e5f5"/>1.35<line stroke="#6da5f2" stroke-width="2.7" x1="0" y1="1.35" x2="0" y2="-1.35"/></g><g transform="translate(649.5770199329559 470.9999741811538) rotate(0.19309997558594186 0 0)"><rect stroke="#6da5f2" stroke-width="2.7" transform-origin="center" x="-9.408109784126282" y="-25.039126873016357" width="18.816219568252563" height="50.078253746032715" rx="3.7632439136505127" fill-opacity="1" fill="#d0e5f5"/>1.35<line stroke="#6da5f2" stroke-width="2.7" x1="0" y1="1.35" x2="0" y2="-1.35"/></g><g transform="translate(649.2403266340376 571.0115534893276) rotate(0.19309997558594186 0 0)"><rect stroke="#d979ad" stroke-width="2.7" transform-origin="center" x="-9.648797512054443" y="-26.187572479248047" width="19.297595024108887" height="52.375144958496094" rx="3.8595190048217773" fill-opacity="1" fill="#f2c6de"/>1.35<line stroke="#d979ad" stroke-width="2.7" x1="0" y1="1.35" x2="0" y2="-1.35"/></g></g></svg>