<svg xmlns="http://www.w3.org/2000/svg" width="350" height="350"><g transform="translate(-465.0 -345.0)"><g transform="translate(640 640) rotate(0 0 0)"><rect stroke="#6da5f2" stroke-width="2.7" transform-origin="center" x="-9.183566570281982" y="-24.4619083404541" width="18.367133140563965" height="48.9238166809082" rx="3.673426628112793" fill-opacity="1" fill="#d0e5f5"/>1.35<line stroke="#6da5f2" stroke-width="2.7" x1="0" y1="1.35" x2="0" y2="-1.35"/></g><g transform="translate(608.9898879746944 590.245278908117) rotate(-179.9888916015625 0 0)"><rect stroke="#6da5f2" stroke-width="2.7" transform-origin="center" x="-9.408109784126282" y="-25.039126873016357" width="18.816219568252563" height="50.078253746032715" rx="3.7632439136505127" fill-opacity="1" fill="#d0e5f5"/>72.1489110639823<line stroke="#6da5f2" stroke-width="2.7" x1="0" y1="1.35" x2="0" y2="-72.1489110639823"/></g><g transform="translate(609.0570761846371 924.2626524342379) rotate(179.9161148071289 0 0)"><rect stroke="#6da5f2" stroke-width="2.7" transform-origin="center" x="-9.059062600135803" y="-23.368194103240967" width="18.118125200271606" height="46.736388206481934" rx="3.6236250400543213" fill-opacity="1" fill="#d0e5f5"/>38.75830420971813<line stroke="#6da5f2" stroke-width="2.7" x1="0" y1="1.35" x2="0" y2="-38.75830420971813"/></g><g transform="translate(609.0546318587226 1074.4912343426674) rotate(-179.95498657226562 0 0)"><rect stroke="#6da5f2" stroke-width="2.7" transform-origin="center" x="-9.970585703849792" y="-20.906050205230713" width="19.941171407699585" height="41.812100410461426" rx="3.988234281539917" fill-opacity="1" fill="#d0e5f5"/>39.65558462291378<line stroke="#6da5f2" stroke-width="2.7" x1="0" y1="1.35" x2="0" y2="-39.65558462291378"/></g><g transform="translate(531.489081243092 1190.3932651358314) rotate(-99.83313745260239 0 0)"><rect stroke="#6da5f2" stroke-width="2.7" transform-origin="center" x="-9.47413444519043" y="-23.58762502670288" width="18.94826889038086" height="47.17525005340576" rx="3.789653778076172" fill-opacity="1" fill="#d0e5f5"/>72.57090489657314<line stroke="#6da5f2" stroke-width="2.7" x1="0" y1="1.35" x2="0" y2="-72.57090489657314"/></g><g transform="translate(640.9665920617791 940.6590418264125) rotate(0.08119201660155496 0 0)"><rect stroke="#6da5f2" stroke-width="2.7" transform-origin="center" x="-9.408109784126282" y="-25.039126873016357" width="18.816219568252563" height="50.078253746032715" rx="3.7632439136505127" fill-opacity="1" fill="#d0e5f5"/>71.53088986884622<line stroke="#6da5f2" stroke-width="2.7" x1="0" y1="1.35" x2="0" y2="-71.53088986884622"/></g><g transform="translate(640.054170112761 1093.9662731224832) rotate(0.03097534179686969 0 0)"><rect stroke="#6da5f2" stroke-width="2.7" transform-origin="center" x="-10.166014432907104" y="-26.787397861480713" width="20.33202886581421" height="53.574795722961426" rx="4.066405773162842" fill-opacity="1" fill="#d0e5f5"/>41.488716991049124<line stroke="#6da5f2" stroke-width="2.7" x1="0" y1="1.35" x2="0" y2="-41.488716991049124"/></g><g transform="translate(640.6864845968748 471.8226562250825) rotate(0.371109008789054 0 0)"><rect stroke="#6da5f2" stroke-width="2.7" transform-origin="center" x="-9.47413444519043" y="-23.58762502670288" width="18.94826889038086" height="47.17525005340576" rx="3.789653778076172" fill-opacity="1" fill="#d0e5f5"/>12.403284816050837<line stroke="#6da5f2" stroke-width="2.7" x1="0" y1="1.35" x2="0" y2="-12.403284816050837"/></g><g transform="translate(640.6572811653606 305.53775989303983) rotate(0.2788162231445314 0 0)"><rect stroke="#6da5f2" stroke-width="2.7" transform-origin="center" x="-10.749834775924683" y="-27.82914400100708" width="21.499669551849365" height="55.65828800201416" rx="4.299933910369873" fill-opacity="1" fill="#d0e5f5"/>55.19008779684194<line stroke="#6da5f2" stroke-width="2.7" x1="0" y1="1.35" x2="0" y2="-55.19008779684194"/></g><g transform="translate(667.3045284841461 639.8320899464593) rotate(-11.525772094726562 0 0)"><rect stroke="#6da5f2" stroke-width="2.7" transform-origin="center" x="-10.485360622406006" y="-22.763495445251465" width="20.97072124481201" height="45.52699089050293" rx="4.194144248962402" fill-opacity="1" fill="#d0e5f5"/>16.72237909616135<line stroke="#6da5f2" stroke-width="2.7" x1="0" y1="1.35" x2="0" y2="-16.72237909616135"/></g><g transform="translate(671.1221716232237 716.1307829560899) rotate(-0.00817108154296875 0 0)"><rect stroke="#6da5f2" stroke-width="2.7" transform-origin="center" x="-10.485360622406006" y="-22.763495445251465" width="20.97072124481201" height="45.52699089050293" rx="4.194144248962402" fill-opacity="1" fill="#d0e5f5"/>1.35<line stroke="#6da5f2" stroke-width="2.7" x1="0" y1="1.35" x2="0" y2="-1.35"/></g><g transform="translate(581.3986398114074 523.307111665823) rotate(179.99887084960938 0 0)"><rect stroke="#6da5f2" stroke-width="2.7" transform-origin="center" x="-8.44987839460373" y="-19.989827871322632" width="16.89975678920746" height="39.979655742645264" rx="3.3799513578414917" fill-opacity="1" fill="#d0e5f5"/>1.35<line stroke="#6da5f2" stroke-width="2.7" x1="0" y1="1.35" x2="0" y2="-1.35"/></g><g transform="translate(666.6187029711149 304.03912805863365) rotate(-0.001068115234375 0 0)"><rect stroke="#6da5f2" stroke-width="2.7" transform-origin="center" x="-9.83378291130066" y="-20.48714590072632" width="19.66756582260132" height="40.97429180145264" rx="3.9335131645202637" fill-opacity="1" fill="#d0e5f5"/>1.35<line stroke="#6da5f2" stroke-width="2.7" x1="0" y1="1.35" x2="0" y2="-1.35"/></g><g transform="translate(666.7257865768049 1016.6955710270807) rotate(0.0038375854492105088 0 0)"><rect stroke="#6da5f2" stroke-width="2.7" transform-origin="center" x="-8.759078621864319" y="-24.145554542541504" width="17.518157243728638" height="48.29110908508301" rx="3.5036314487457276" fill-opacity="1" fill="#d0e5f5"/>1.35<line stroke="#6da5f2" stroke-width="2.7" x1="0" y1="1.35" x2="0" y2="-1.35"/></g><g transform="translate(581.4731106235622 1016.6250023124993) rotate(-179.99520111083987 0 0)"><rect stroke="#6da5f2" stroke-width="2.7" transform-origin="center" x="-9.436877131462097" y="-22.53521418571472" width="18.873754262924194" height="45.07042837142944" rx="3.774750852584839" fill-opacity="1" fill="#d0e5f5"/>1.35<line stroke="#6da5f2" stroke-width="2.7" x1="0" y1="1.35" x2="0" y2="-1.35"/></g><g transform="translate(666.644439158954 468.51562819795663) rotate(-0.00214385986328125 0 0)"><rect stroke="#6da5f2" stroke-width="2.7" transform-origin="center" x="-10.958143472671509" y="-25.046229600906372" width="21.916286945343018" height="50.092459201812744" rx="4.3832573890686035" fill-opacity="1" fill="#d0e5f5"/>1.35<line stroke="#6da5f2" stroke-width="2.7" x1="0" y1="1.35" x2="0" y2="-1.35"/></g><g transform="translate(581.4485202105585 852.1870972240392) rotate(-179.99906158447266 0 0)"><rect stroke="#6da5f2" stroke-width="2.7" transform-origin="center" x="-9.83378291130066" y="-20.48714590072632" width="19.66756582260132" height="40.97429180145264" rx="3.9335131645202637" fill-opacity="1" fill="#d0e5f5"/>1.35<line stroke="#6da5f2" stroke-width="2.7" x1="0" y1="1.35" x2="0" y2="-1.35"/></g><g transform="translate(581.3645249077798 304.03798488916806) rotate(179.9963150024414 0 0)"><rect stroke="#6da5f2" stroke-width="2.7" transform-origin="center" x="-8.44987839460373" y="-19.989827871322632" width="16.89975678920746" height="39.979655742645264" rx="3.3799513578414917" fill-opacity="1" fill="#d0e5f5"/>1.35<line stroke="#6da5f2" stroke-width="2.7" x1="0" y1="1.35" x2="0" y2="-1.35"/></g><g transform="translate(666.6098738181408 249.2120314143463) rotate(-0.00386810302734375 0 0)"><rect stroke="#6da5f2" stroke-width="2.7" transform-origin="center" x="-9.83378291130066" y="-20.48714590072632" width="19.66756582260132" height="40.97429180145264" rx="3.9335131645202637" fill-opacity="1" fill="#d0e5f5"/>1.35<line stroke="#6da5f2" stroke-width="2.7" x1="0" y1="1.35" x2="0" y2="-1.35"/></g><g transform="translate(666.6356077636598 413.68850490446346) rotate(-0.001068115234375 0 0)"><rect stroke="#6da5f2" stroke-width="2.7" transform-origin="center" x="-8.759078621864319" y="-24.145554542541504" width="17.518157243728638" height="48.29110908508301" rx="3.5036314487457276" fill-opacity="1" fill="#d0e5f5"/>1.35<line stroke="#6da5f2" stroke-width="2.7" x1="0" y1="1.35" x2="0" y2="-1.35"/></g><g transform="translate(666.6510102943292 523.3283054943658) rotate(-0.00214385986328125 0 0)"><rect stroke="#6da5f2" stroke-width="2.7" transform-origin="center" x="-10.037713408470154" y="-22.015717506408695" width="20.075426816940308" height="44.03143501281739" rx="4.015085363388062" fill-opacity="1" fill="#d0e5f5"/>1.35<line stroke="#6da5f2" stroke-width="2.7" x1="0" y1="1.35" x2="0" y2="-1.35"/></g><g transform="translate(666.7184412177078 961.8778311529015) rotate(0.0038375854492105088 0 0)"><rect stroke="#6da5f2" stroke-width="2.7" transform-origin="center" x="-9.010315775871277" y="-21.03137469291687" width="18.020631551742554" height="42.06274938583374" rx="3.604126310348511" fill-opacity="1" fill="#d0e5f5"/>1.35<line stroke="#6da5f2" stroke-width="2.7" x1="0" y1="1.35" x2="0" y2="-1.35"/></g><g transform="translate(581.4837741713624 1071.4323669777946) rotate(-179.9962387084961 0 0)"><rect stroke="#6da5f2" stroke-width="2.7" transform-origin="center" x="-10.958143472671509" y="-25.046229600906372" width="21.916286945343018" height="50.092459201812744" rx="4.3832573890686035" fill-opacity="1" fill="#d0e5f5"/>1.35<line stroke="#6da5f2" stroke-width="2.7" x1="0" y1="1.35" x2="0" y2="-1.35"/></g><g transform="translate(581.4558606178651 907.0047782478891) rotate(-179.9975128173828 0 0)"><rect stroke="#6da5f2" stroke-width="2.7" transform-origin="center" x="-9.436877131462097" y="-22.53521418571472" width="18.873754262924194" height="45.07042837142944" rx="3.774750852584839" fill-opacity="1" fill="#d0e5f5"/>1.35<line stroke="#6da5f2" stroke-width="2.7" x1="0" y1="1.35" x2="0" y2="-1.35"/></g><g transform="translate(581.4395233872273 797.3746356356271) rotate(-179.99679565429688 0 0)"><rect stroke="#6da5f2" stroke-width="2.7" transform-origin="center" x="-10.037713408470154" y="-22.015717506408695" width="20.075426816940308" height="44.03143501281739" rx="4.015085363388062" fill-opacity="1" fill="#d0e5f5"/>1.35<line stroke="#6da5f2" stroke-width="2.7" x1="0" y1="1.35" x2="0" y2="-1.35"/></g><g transform="translate(581.4067214927857 578.1294636721699) rotate(179.99992370605466 0 0)"><rect stroke="#6da5f2" stroke-width="2.7" transform-origin="center" x="-8.759078621864319" y="-24.145554542541504" width="17.518157243728638" height="48.29110908508301" rx="3.5036314487457276" fill-opacity="1" fill="#d0e5f5"/>1.35<line stroke="#6da5f2" stroke-width="2.7" x1="0" y1="1.35" x2="0" y2="-1.35"/></g><g transform="translate(581.372599924484 358.8602576881534) rotate(179.99900817871094 0 0)"><rect stroke="#6da5f2" stroke-width="2.7" transform-origin="center" x="-9.735525012016296" y="-21.563007831573486" width="19.471050024032593" height="43.12601566314697" rx="3.8942100048065185" fill-opacity="1" fill="#d0e5f5"/>1.35<line stroke="#6da5f2" stroke-width="2.7" x1="0" y1="1.35" x2="0" y2="-1.35"/></g><g transform="translate(581.3564499222189 249.21571246031056) rotate(179.99900817871094 0 0)"><rect stroke="#6da5f2" stroke-width="2.7" transform-origin="center" x="-9.436877131462097" y="-22.53521418571472" width="18.873754262924194" height="45.07042837142944" rx="3.774750852584839" fill-opacity="1" fill="#d0e5f5"/>1.35<line stroke="#6da5f2" stroke-width="2.7" x1="0" y1="1.35" x2="0" y2="-1.35"/></g><circle stroke="#05961a" stroke-width="1.1666666666666667" opacity="1" cx="639.97766" cy="618.82764" r="3.5" fill="#00cf1f"/><circle stroke="#05961a" stroke-width="1.1666666666666667" opacity="1" cx="639.9747" cy="601.40784" r="3.5" fill="#00cf1f"/><circle stroke="#05961a" stroke-width="1.1666666666666667" opacity="1" cx="639.9306" cy="584.1585" r="3.5" fill="#00cf1f"/><circle stroke="#05961a" stroke-width="1.1666666666666667" opacity="1" cx="639.92975" cy="568.329" r="3.5" fill="#00cf1f"/><circle stroke="#05961a" stroke-width="1.1666666666666667" opacity="1" cx="639.89636" cy="551.95465" r="3.5" fill="#00cf1f"/><circle stroke="#05961a" stroke-width="1.1666666666666667" opacity="1" cx="639.92" cy="534.47974" r="3.5" fill="#00cf1f"/><circle stroke="#05961a" stroke-width="1.1666666666666667" opacity="1" cx="639.93524" cy="517.16907" r="3.5" fill="#00cf1f"/><circle stroke="#05961a" stroke-width="1.1666666666666667" opacity="1" cx="639.9502" cy="499.9305" r="3.5" fill="#00cf1f"/></g></svg>